<?xml version="1.0" encoding="UTF-8"?>
<svg width="11px" height="8px" viewBox="0 0 11 8" version="1.1" xmlns="http://www.w3.org/2000/svg" xmlns:xlink="http://www.w3.org/1999/xlink">
    <!-- Generator: sketchtool 63.1 (101010) - https://sketch.com -->
    <title>1866409A-9E8B-431B-ABDC-79291CAEEDC9@1.00x</title>
    <desc>Created with sketchtool.</desc>
    <g id="UI" stroke="none" stroke-width="1" fill="none" fill-rule="evenodd">
        <g id="Mockup-for-Screening-Test" transform="translate(-160.000000, -91.000000)" fill="#F89F1E" fill-rule="nonzero">
            <g id="Header" transform="translate(-80.000000, 0.000000)">
                <g id="location-&amp;-email" transform="translate(160.000000, 86.000000)">
                    <path d="M87.1275703,9.47224444 L90.4364648,12.9059556 C90.3133379,12.9648889 90.1775781,13 90.0332031,13 L90.0332031,13 L80.9667969,13 C80.8224219,13 80.6866191,12.9648444 80.5634492,12.9059333 L80.5634492,12.9059333 L83.8723867,9.47224444 L84.7937012,10.4283778 C85.1753711,10.8245111 85.832707,10.8161556 86.2062988,10.4283778 L86.2062988,10.4283778 L87.1275703,9.47224444 Z M80.1028242,5.56026667 L83.4174766,9.00011111 L80.1028027,12.4397333 C80.0390586,12.3064444 80,12.1584889 80,12 L80,12 L80,6 C80,5.84151111 80.0391016,5.69355556 80.1028242,5.56026667 L80.1028242,5.56026667 Z M90.8971758,5.56022222 C90.9608984,5.69351111 91,5.84146667 91,6 L91,6 L91,12 C91,12.1585333 90.9608984,12.3064889 90.8971758,12.4397778 L90.8971758,12.4397778 L87.5825449,9.00011111 Z M90.0332031,5 C90.1775781,5 90.3133379,5.03511111 90.4364648,5.09404444 L90.4364648,5.09404444 L86.9007168,8.76346667 L86.9007168,8.76346667 C86.8997285,8.76424444 86.8994492,8.76477778 86.8994492,8.76477778 L85.7499922,9.95768889 C85.627875,10.084 85.372168,10.084 85.2500508,9.95768889 L85.2500508,9.95768889 L84.1003574,8.76457778 L84.1003574,8.76457778 C84.0998418,8.76375556 84.0995625,8.76371111 84.0993262,8.76346667 L80.5634922,5.09406667 C80.6866191,5.03515556 80.8224219,5 80.9667969,5 L80.9667969,5 Z" id="email"></path>
                </g>
            </g>
        </g>
    </g>
</svg>