<?xml version="1.0" encoding="UTF-8"?>
<svg width="20px" height="17px" viewBox="0 0 20 17" version="1.1" xmlns="http://www.w3.org/2000/svg" xmlns:xlink="http://www.w3.org/1999/xlink">
    <!-- Generator: sketchtool 63.1 (101010) - https://sketch.com -->
    <title>3CF6DD60-3301-40FF-9745-A0AF7F495766@1.00x</title>
    <desc>Created with sketchtool.</desc>
    <g id="UI" stroke="none" stroke-width="1" fill="none" fill-rule="evenodd">
        <g id="Mockup-for-Screening-Test" transform="translate(-320.000000, -42.000000)" fill="#3FC4B6">
            <g id="Header" transform="translate(-80.000000, 0.000000)">
                <path d="M418.75,56 C419.440356,56 420,56.5596441 420,57.25 C420,57.9403559 419.440356,58.5 418.75,58.5 L411.25,58.5 C410.559644,58.5 410,57.9403559 410,57.25 C410,56.5596441 410.559644,56 411.25,56 L418.75,56 Z M418.75,49 C419.440356,49 420,49.5596441 420,50.25 C420,50.9403559 419.440356,51.5 418.75,51.5 L401.25,51.5 C400.559644,51.5 400,50.9403559 400,50.25 C400,49.5596441 400.559644,49 401.25,49 L418.75,49 Z M418.75,42 C419.440356,42 420,42.5596441 420,43.25 C420,43.9403559 419.440356,44.5 418.75,44.5 L401.25,44.5 C400.559644,44.5 400,43.9403559 400,43.25 C400,42.5596441 400.559644,42 401.25,42 L418.75,42 Z" id="Menu"></path>
            </g>
        </g>
    </g>
</svg>