<?xml version="1.0" encoding="UTF-8"?>
<svg width="7px" height="10px" viewBox="0 0 7 10" version="1.1" xmlns="http://www.w3.org/2000/svg" xmlns:xlink="http://www.w3.org/1999/xlink">
    <!-- Generator: sketchtool 63.1 (101010) - https://sketch.com -->
    <title>240B98C4-4F0B-4920-BED3-B208A56A0885@1.00x</title>
    <desc>Created with sketchtool.</desc>
    <g id="UI" stroke="none" stroke-width="1" fill="none" fill-rule="evenodd">
        <g id="Mockup-for-Screening-Test" transform="translate(-80.000000, -89.000000)" fill="#F89F1E" fill-rule="nonzero">
            <g id="Header" transform="translate(-80.000000, 0.000000)">
                <g id="location-&amp;-email" transform="translate(160.000000, 86.000000)">
                    <path d="M3.5,3 C1.57008958,3 0,4.62465042 0,6.62160598 C0,9.09989025 3.13215713,12.7381564 3.2655115,12.8918285 C3.39076833,13.0361841 3.60945817,13.0359302 3.7344885,12.8918285 C3.86784287,12.7381564 7,9.09989025 7,6.62160598 C7,4.62465042 5.42989155,3 3.5,3 Z M3.5,8.4437371 C2.52901411,8.4437371 1.73908061,7.62633376 1.73908061,6.62160598 C1.73908061,5.61687819 2.52903299,4.79949438 3.5,4.79949438 C4.47096701,4.79949438 5.26090052,5.61689772 5.26090052,6.62162551 C5.26090052,7.62635329 4.47096701,8.4437371 3.5,8.4437371 Z" id="Shape"></path>
                </g>
            </g>
        </g>
    </g>
</svg>