<?xml version="1.0" encoding="UTF-8"?>
<svg width="16px" height="16px" viewBox="0 0 16 16" version="1.1" xmlns="http://www.w3.org/2000/svg" xmlns:xlink="http://www.w3.org/1999/xlink">
    <!-- Generator: sketchtool 63.1 (101010) - https://sketch.com -->
    <title>8E92F20E-CC27-4C8E-BEBD-23AC7E61C6A6@1.00x</title>
    <desc>Created with sketchtool.</desc>
    <g id="UI" stroke="none" stroke-width="1" fill="none" fill-rule="evenodd">
        <g id="Mockup-for-Screening-Test" transform="translate(-210.000000, -43.000000)" fill-rule="nonzero">
            <g id="Header" transform="translate(-80.000000, 0.000000)">
                <g id="Name" transform="translate(159.000000, 36.000000)">
                    <g id="verified" transform="translate(131.000000, 7.000000)">
                        <path d="M15.9752611,6.6421992 C15.8821477,6.12022311 15.5417425,5.70301195 15.0942634,5.48682072 C15.303188,5.03394422 15.2954501,4.49150598 15.0245252,4.02760159 C14.7564375,3.56857371 14.2921929,3.29163347 13.796932,3.23977689 C13.836589,2.74355378 13.6416249,2.23646215 13.2265163,1.89214343 C12.8157925,1.55145817 12.2837441,1.44815936 11.8003802,1.56688446 C11.6659656,1.08720319 11.307344,0.676589641 10.7981226,0.493386454 C10.2942854,0.312095618 9.75859374,0.394932271 9.34545181,0.669928287 C9.05321531,0.264573705 8.57413961,0 8.03225757,0 C7.49608227,0 7.02135916,0.258964143 6.72828439,0.657051793 C6.31340142,0.37498008 5.77168058,0.288350598 5.26249137,0.471553785 C4.75865424,0.652844622 4.40216054,1.0567012 4.26445731,1.52988048 C3.77699883,1.4050996 3.23798628,1.50683665 2.82287762,1.85118725 C2.4121538,2.19187251 2.21686734,2.69192032 2.25120448,3.18310757 C1.74997891,3.23066135 1.2786734,3.50849402 1.00771626,3.97243028 C0.739628606,4.43145817 0.729150135,4.96736255 0.931336264,5.41730677 C0.47679631,5.63145817 0.130039522,6.05192032 0.0359267306,6.57944223 C-0.0571865753,7.10141833 0.118368117,7.60857371 0.464060938,7.96299602 C0.111017066,8.31792829 -0.0693738432,8.83024701 0.0247389477,9.3578008 C0.117852254,9.87977689 0.458257477,10.296988 0.905736553,10.5131793 C0.696811961,10.9660558 0.704549909,11.508494 0.975474809,11.9723984 C1.24356246,12.4314263 1.70780709,12.7083665 2.203068,12.7602231 C2.16341101,13.2564462 2.35837506,13.7635378 2.77348372,14.1078566 C3.18420754,14.4485418 3.71625594,14.5518406 4.19961975,14.4331155 C4.33403435,14.9127968 4.692656,15.3234104 5.20187745,15.5066135 C5.70571458,15.6879044 6.24140626,15.6050677 6.65454819,15.3300717 C6.94681693,15.7354263 7.42589263,16 7.96777467,16 C8.50394998,16 8.97867308,15.7410359 9.27174785,15.3429482 C9.68663082,15.6250199 10.2283517,15.7116494 10.7375409,15.5284462 C11.241378,15.3471554 11.5978717,14.9432988 11.7355427,14.4701514 C12.2229689,14.5949323 12.7620137,14.4931952 13.1771224,14.1488446 C13.5878462,13.8081594 13.7831327,13.3081116 13.7487955,12.8169243 C14.2500211,12.7693705 14.7213266,12.4915378 14.9922837,12.0276016 C15.2603714,11.5685737 15.2708499,11.0326693 15.0686637,10.5827251 C15.5232037,10.3685737 15.8699605,9.94814343 15.9640733,9.42058964 C16.0571866,8.89861355 15.8816319,8.39145817 15.5359391,8.03703586 C15.8889829,7.68207171 16.0693738,7.16975299 15.9752611,6.6421992 Z" id="Path" fill="#3FC4B6"></path>
                        <polygon id="Path" fill="#FFFFFF" points="6.82407004 12.1851057 3.69784624 8.95551165 5.27281888 7.32846169 6.82407004 8.93100581 10.7511815 4.87404229 12.3261541 6.50109225"></polygon>
                    </g>
                </g>
            </g>
        </g>
    </g>
</svg>